<?xml version="1.0" encoding="UTF-8"?>
<!DOCTYPE svg PUBLIC "-//W3C//DTD SVG 1.1//EN" "http://www.w3.org/Graphics/SVG/1.1/DTD/svg11.dtd">
<!-- Creator: CorelDRAW 2019 (64-Bit) -->
<svg xmlns="http://www.w3.org/2000/svg" xml:space="preserve" width="100%" height="100%" version="1.1" shape-rendering="geometricPrecision" text-rendering="geometricPrecision" image-rendering="optimizeQuality" fill-rule="evenodd" clip-rule="evenodd"
viewBox="0 0 6169 6169"
 xmlns:xlink="http://www.w3.org/1999/xlink">
 <g id="Слой_x0020_1">
  <metadata id="CorelCorpID_0Corel-Layer"/>
  <g id="_2540468840800">
   <path fill="#FDFDFD" d="M0 5297l216 -2 1 -1812c69,-2 476,6 501,-4l4 -7c7,-18 4,-48 4,-67l0 -2094c0,-17 8,-289 -8,-301 -33,-14 -473,3 -560,-5l3 -294 5972 1c7,32 6,253 1,293 -101,7 -218,1 -320,1l-4715 0c-13,0 -27,0 -40,0 -18,0 -22,-3 -32,6 -13,13 -5,1853 -5,2165 0,34 -6,289 5,299 23,14 382,3 444,5l1 1473c26,9 180,8 207,0 8,-83 1,-198 1,-284 0,-122 -6,-794 3,-856 52,-7 131,-2 185,-2 61,0 122,0 182,-1 92,-1 87,-6 130,54 16,22 28,31 41,52 32,48 29,24 37,53 -11,20 -41,37 -59,51 -80,67 -62,50 -111,-11 -38,-47 -41,-35 -152,-35 -17,0 -33,0 -49,0l-36 3c-16,-30 -8,528 -8,568 0,85 6,525 -2,570l-365 3c-11,39 -8,126 -4,175l214 1c3,34 6,132 -2,161 -280,7 -566,1 -846,1l-631 4c-65,1 -150,-6 -207,-2l0 709 6169 0 0 -1666c-3,5 -1,-4 -4,12 -5,26 -2,39 -16,103 -14,65 -41,146 -73,202 -12,21 -43,71 -44,93 -4,90 7,506 -3,544 -78,3 -711,8 -731,-4 -16,-30 7,-212 -4,-261 -3,-14 12,-16 -51,-16 -283,1 -1812,-8 -1824,5 -18,49 10,213 -7,274l-733 1c-9,-84 3,-406 -1,-530 -2,-55 -48,-100 -68,-151 -55,-141 -88,-304 -63,-465 20,-125 53,-221 112,-317 16,-26 29,-39 44,-60 28,-39 70,-78 110,-107 88,-62 60,-23 99,-222 27,-138 112,-332 198,-447 59,-80 132,-152 229,-205 121,-66 218,-60 371,-60l1286 0c246,0 314,-2 497,146 39,31 70,69 103,113 51,69 120,195 149,280 43,128 46,130 67,258 24,142 11,63 143,187 31,29 75,85 98,123 104,171 93,294 115,329l0 -4331 -6169 0 0 5297z"/>
   <path fill="black" d="M6169 4503l0 -171c-22,-35 -11,-158 -115,-329 -23,-38 -68,-95 -98,-123 -132,-123 -119,-44 -143,-187 -21,-129 -24,-130 -67,-258 -29,-85 -98,-211 -149,-280 -33,-44 -65,-82 -103,-113 -182,-148 -251,-146 -497,-146l-1286 0c-153,0 -251,-7 -371,60 -97,53 -170,125 -229,205 -86,116 -171,310 -198,447 -39,199 -10,159 -99,222 -40,28 -83,68 -110,107 -15,21 -28,34 -44,60 -59,95 -92,192 -112,317 -25,161 7,324 63,465 20,51 66,96 68,151 4,125 -7,447 1,530l733 -1c17,-61 -11,-225 7,-274 12,-14 1541,-4 1824,-5 63,0 48,1 51,16 11,49 -12,231 4,261 19,12 653,6 731,4 11,-38 -1,-455 3,-544 1,-22 32,-72 44,-93 32,-57 59,-137 73,-202 14,-64 11,-77 16,-103 3,-16 1,-7 4,-12z"/>
   <path fill="black" d="M0 5297l0 163c57,-3 142,3 207,2l631 -4c280,0 566,6 846,-1 8,-28 5,-127 2,-161l-214 -1c-4,-49 -7,-135 4,-175l365 -3c8,-45 2,-485 2,-570 0,-40 -9,-598 8,-568l36 -3c17,0 33,0 49,0 110,0 114,-12 152,35 49,61 31,78 111,11 18,-15 47,-32 59,-51 -8,-29 -5,-5 -37,-53 -14,-21 -26,-30 -41,-52 -42,-60 -38,-55 -130,-54 -61,0 -122,0 -182,1 -55,0 -134,-5 -185,2 -9,62 -3,734 -3,856 0,87 6,201 -1,284 -27,8 -181,8 -207,0l-1 -1473c-62,-1 -420,10 -444,-5 -11,-10 -5,-265 -5,-299 0,-313 -7,-2152 5,-2165 9,-9 14,-6 32,-6 13,0 27,0 40,0l4715 0c102,0 219,5 320,-1 4,-40 6,-261 -1,-293l-5972 -1 -3 294c88,8 528,-9 560,5 15,11 8,284 8,301l0 2094c0,19 3,49 -4,67l-4 7c-24,9 -432,1 -501,4l-1 1812 -216 2z"/>
   <path fill="#FDFDFD" d="M3121 3698c168,-9 233,-10 402,-10l818 0c71,0 364,4 408,-2 9,-166 91,-289 228,-350 106,-47 212,-47 317,2 35,16 93,54 114,78 27,30 59,77 77,115 28,60 26,93 36,162l68 6c-21,-126 -69,-240 -122,-336 -33,-59 -79,-117 -123,-158 -139,-128 -345,-91 -535,-91l-907 0c-115,0 -338,-14 -429,25 -83,36 -105,69 -159,121 -78,75 -181,320 -194,438z"/>
   <path fill="#FDFDFD" d="M499 3764c-11,27 -7,456 -4,516l695 1c8,-96 0,-336 1,-459 0,-74 13,-62 -88,-62 -73,0 -578,-5 -605,2z"/>
   <path fill="#FDFDFD" d="M3632 4503c-27,10 -46,27 -52,55 -7,35 11,65 32,78 35,21 152,12 201,12 185,1 1233,7 1268,-5 53,-19 65,-96 15,-131 -34,-24 -149,-14 -199,-14 -183,0 -1235,-6 -1265,5z"/>
   <path fill="#FDFDFD" d="M3643 4291c-27,5 -51,17 -61,46 -11,33 2,65 24,83 32,25 147,15 197,15 98,0 1229,6 1270,-2 60,-12 76,-90 29,-129 -35,-29 -141,-17 -195,-17 -116,0 -1201,-7 -1265,5z"/>
   <path fill="#FDFDFD" d="M5517 4196c-49,11 -49,5 -91,27 -89,47 -132,134 -123,236 10,126 128,228 270,211 124,-15 221,-123 209,-263 -10,-119 -132,-239 -265,-211z"/>
   <path fill="#FDFDFD" d="M3142 4196c-62,14 -107,21 -158,79 -139,159 -18,422 213,395 123,-14 221,-122 209,-264 -10,-117 -136,-239 -265,-210z"/>
   <path fill="black" d="M2198 4125c-35,51 -143,276 -161,330 -25,73 -40,121 3,192 110,182 428,75 322,-194 -25,-64 -84,-189 -119,-250 -13,-23 -26,-65 -45,-77z"/>
   <path fill="#FDFDFD" d="M4896 3686l475 1c-7,-137 -97,-234 -236,-235 -136,-1 -234,97 -238,233z"/>
  </g>
 </g>
</svg>
