<?xml version="1.0" encoding="UTF-8"?>
<!DOCTYPE svg PUBLIC "-//W3C//DTD SVG 1.1//EN" "http://www.w3.org/Graphics/SVG/1.1/DTD/svg11.dtd">
<!-- Creator: CorelDRAW 2019 (64-Bit) -->
<svg xmlns="http://www.w3.org/2000/svg" xml:space="preserve" width="100%" height="100%" version="1.1" shape-rendering="geometricPrecision" text-rendering="geometricPrecision" image-rendering="optimizeQuality" fill-rule="evenodd" clip-rule="evenodd"
viewBox="0 0 1450 1450"
 xmlns:xlink="http://www.w3.org/1999/xlink">
 <g id="Слой_x0020_1">
  <metadata id="CorelCorpID_0Corel-Layer"/>
  <g id="_2538970739600">
   <path fill="black" d="M596 712l2 -3 1 -2c0,-2 -1,-2 2,-2 9,-7 43,-4 59,-4l129 0c16,0 51,-4 60,4 2,0 2,-1 2,2l1 2 2 3c-3,47 0,102 0,150l0 187c0,39 32,9 33,42 1,36 -3,28 -85,28 -27,0 -217,1 -226,0 -12,-2 -12,-11 -12,-26 0,-37 32,-4 33,-42 1,-25 1,-325 -1,-339zm4 -263l5 1 3 2 2 1c3,0 2,-1 2,2l1 2c8,11 2,35 5,51l87 0c3,-22 -3,-90 2,-104l2 -4c9,-14 25,-14 34,0l1 4c5,14 -1,82 2,104l87 0c2,-16 -3,-40 5,-51l1 -2c0,-3 -1,-2 2,-2l2 -1 3 -2 5 -1c27,6 21,30 21,61 27,0 57,1 83,0 12,-1 8,-4 8,-34 0,-16 -4,-70 6,-79 10,-9 21,-4 27,3 6,7 3,68 3,82 0,30 7,61 -20,64 -24,2 -59,0 -85,0 -112,0 -225,0 -337,0 -27,0 -58,1 -85,0 -13,-1 -21,-8 -21,-21 0,-20 -2,-117 2,-123 4,-6 15,-14 27,-5 9,7 7,20 7,36l0 64c0,10 -2,14 6,15 22,2 61,0 85,0 0,-31 -6,-55 21,-61zm-419 263c0,29 1,59 5,86l10 56c3,17 17,59 24,75l34 67c4,7 7,14 12,21 2,4 4,6 7,10l10 14c19,23 37,47 58,69 21,21 44,37 66,56l57 36c5,2 7,3 11,5 17,10 52,26 71,30 16,4 34,13 51,16 56,9 75,15 138,15 54,0 110,-11 161,-28l32 -11c31,-13 60,-28 88,-45l21 -15c0,0 1,0 1,-1 3,-2 1,-1 3,-2 23,-18 47,-36 68,-57 22,-22 39,-45 58,-69 9,-10 28,-42 34,-54 12,-22 30,-58 36,-81 9,-31 11,-32 18,-65 11,-57 14,-68 14,-130 0,-41 -8,-78 -15,-117 -3,-18 -11,-35 -16,-51 -10,-33 -35,-83 -54,-112l-21 -29c-3,-3 -4,-6 -7,-9 -31,-41 -68,-75 -109,-106 -2,-1 -3,-2 -4,-4l-90 -53c-5,-2 -7,-2 -12,-4 -13,-5 -23,-11 -36,-14 -8,-2 -16,-6 -24,-8 -24,-8 -59,-14 -83,-18 -44,-6 -98,-6 -142,0 -21,3 -37,8 -57,10 -17,2 -35,10 -51,16 -40,12 -77,32 -113,53l-25 17c0,0 -1,1 -1,1l-4 3c-3,3 -6,4 -9,7 -19,14 -37,30 -54,47l-31 34c-5,6 -9,11 -14,18 -3,4 -5,6 -7,9 -1,2 -2,3 -4,5 -18,22 -42,64 -54,90 -3,8 -6,15 -10,23 -8,16 -22,59 -25,76l-5 27c-6,31 -10,58 -10,91z"/>
   <path fill="black" d="M1335 738c-1,3 0,14 0,18 0,30 -9,88 -17,116l-8 29c-3,13 -6,18 -10,30l-35 79c-4,9 -8,18 -13,26 -11,16 -21,35 -34,50l-10 14c-10,11 -18,23 -28,34l-69 65c-4,3 -6,5 -10,8 -5,5 -10,6 -14,10l-8 7c-4,3 -7,4 -12,7 -23,15 -47,30 -72,42 -27,13 -54,25 -82,33 -33,10 -59,15 -93,21 -21,4 -87,11 -107,8 -23,-4 -47,-3 -69,-6 -11,-2 -20,-4 -33,-5 -22,-2 -69,-18 -90,-25l-79 -35c-9,-4 -18,-8 -26,-13l-23 -15c-8,-5 -17,-10 -24,-16 0,0 -1,-1 -2,-2l-15 -11c0,0 -1,-1 -1,-1l-82 -77 -25 -30c-6,-6 -4,-6 -8,-12l-9 -11c-3,-4 -4,-7 -7,-12 -31,-48 -59,-99 -75,-154l-16 -61c-6,-27 -16,-114 -12,-139 3,-21 3,-47 6,-69 5,-34 8,-46 16,-79 1,-5 3,-10 4,-15 4,-16 9,-28 15,-42 2,-6 3,-9 5,-14 7,-17 29,-63 38,-77 10,-14 20,-36 32,-48l11 -15c0,0 1,-1 1,-1l21 -25c20,-22 23,-27 46,-48l40 -35c6,-5 11,-7 16,-12 0,0 1,-1 1,-1 12,-11 27,-18 41,-26 37,-24 89,-48 131,-61 5,-2 10,-2 15,-3l46 -13c26,-6 116,-16 139,-13 18,3 46,3 69,6 46,6 80,15 123,30 19,7 36,15 54,23 10,4 41,19 51,26 5,4 5,4 11,7 5,3 7,4 12,7 8,5 17,10 24,16l21 17c4,3 7,5 11,9 20,16 53,46 68,65l25 30c6,6 4,6 8,12 3,3 0,1 2,3l37 55c3,5 4,7 7,13l36 78c4,9 8,20 11,29l16 61c9,40 11,80 13,120 0,2 0,8 0,10 0,7 -1,5 -2,8zm-640 -738l69 0c10,1 19,1 27,3 8,1 14,0 22,1 32,2 61,11 92,17 16,3 60,17 75,24 3,2 5,2 8,3l30 12c5,2 10,4 15,6 14,7 62,30 72,39 5,4 8,6 13,8 18,11 34,23 51,36l48 40c30,28 59,58 83,91l19 25c9,13 17,28 27,40 8,10 32,58 37,70l26 62c4,11 7,22 11,33 3,10 8,22 10,32 1,6 2,13 3,20l11 54c3,19 2,28 3,41 2,13 3,27 3,41l0 52 0 1 -4 63c-1,5 -2,13 -3,18 -4,26 -12,65 -20,90l-16 50c-2,6 -5,10 -7,16l-12 30c-3,5 -4,9 -7,15 -5,10 -10,19 -15,29l-32 56c-8,13 -16,27 -27,38l-19 25c-4,5 -5,8 -9,12 -4,5 -6,8 -11,12 -23,24 -41,43 -65,65 -13,12 -39,29 -48,38 -15,15 -36,23 -52,36l-42 23c-10,5 -18,9 -28,14 -6,3 -11,5 -16,7 -3,1 -4,2 -8,4 -3,1 -3,1 -7,3 -17,7 -83,29 -98,33l-73 15c-19,3 -28,2 -41,3 -13,2 -27,3 -41,3l-52 0 -1 0 -81 -7c-13,-2 -24,-4 -37,-7l-70 -18c-30,-8 -32,-12 -49,-17l-45 -19 -85 -47c-23,-14 -42,-30 -63,-46 -4,-3 -8,-5 -12,-9 -5,-4 -8,-6 -12,-11l-33 -31c-7,-7 -15,-14 -22,-22l-16 -19c-10,-13 -24,-31 -34,-43 -13,-13 -20,-31 -30,-46 -2,-3 -3,-3 -5,-6 -11,-15 -39,-75 -48,-94 -1,-2 -2,-4 -3,-7l-12 -32c-6,-17 -17,-49 -20,-66 -2,-8 -2,-13 -4,-19l-11 -54c-2,-14 -1,-27 -3,-41 -1,-8 -2,-17 -2,-25l0 -64 0 -1c0,-14 1,-28 3,-41 1,-8 0,-14 1,-22 2,-32 11,-61 17,-92 2,-11 7,-24 10,-34l17 -49c2,-6 3,-11 5,-16l7 -14c9,-20 18,-40 29,-59 3,-5 5,-9 8,-13 10,-19 22,-36 34,-54l59 -73c25,-26 51,-51 80,-74l25 -19c13,-13 31,-21 46,-31l20 -12c49,-27 98,-50 152,-66 11,-3 23,-8 34,-10l36 -8c27,-6 70,-11 112,-13z"/>
   <path fill="black" d="M632 750l0 86c0,8 7,13 15,13l156 0c6,0 15,-6 15,-11l0 -90c0,-6 -8,-11 -15,-11l-156 0c-8,0 -15,5 -15,13z"/>
   <path fill="#C4C4C4" d="M708 401l-2 4c-5,13 1,82 -2,104l-87 0c-2,-16 3,-40 -5,-51l-1 -2c0,-3 1,-2 -2,-2l-2 -1 -3 -2 -5 -1c0,4 2,2 5,1 1,3 -2,3 3,2 0,3 -1,2 2,1 -1,3 -2,3 2,2 -1,3 -2,2 1,2 6,57 -10,53 21,53 24,0 49,0 73,0l0 -105c3,-2 3,1 2,-4 5,-3 10,-9 17,-9 7,0 11,6 17,9 -1,5 -1,2 1,4l0 105c24,0 49,0 73,0 31,0 15,5 21,-53 3,1 2,1 1,-2 3,1 3,2 2,-2 3,1 2,2 2,-1 5,1 2,1 3,-2 6,3 4,-1 5,-1l-5 1 -3 2 -2 1c-3,0 -2,-1 -2,2l-1 2c-8,11 -2,35 -5,51l-87 0c-3,-22 3,-90 -2,-104l-1 -4c-9,-14 -25,-14 -34,0z"/>
   <path fill="#C4C4C4" d="M601 705c-3,0 -2,-1 -2,2l-1 2 -2 3c3,-1 2,2 2,-3 2,-1 2,0 1,-2 3,0 2,1 2,-2 32,-4 87,-1 124,-1 32,0 97,-3 124,1 0,2 -1,2 2,2l1 2c0,5 0,1 2,3l-2 -3 -1 -2c0,-2 1,-2 -2,-2 -9,-8 -45,-4 -60,-4l-129 0c-15,0 -49,-4 -59,4z"/>
  </g>
 </g>
</svg>
