<?xml version="1.0" encoding="UTF-8"?>
<!DOCTYPE svg PUBLIC "-//W3C//DTD SVG 1.1//EN" "http://www.w3.org/Graphics/SVG/1.1/DTD/svg11.dtd">
<!-- Creator: CorelDRAW 2019 (64-Bit) -->
<svg xmlns="http://www.w3.org/2000/svg" xml:space="preserve" width="100%" height="100%" version="1.1" shape-rendering="geometricPrecision" text-rendering="geometricPrecision" image-rendering="optimizeQuality" fill-rule="evenodd" clip-rule="evenodd"
viewBox="0 0 1677 1828"
 xmlns:xlink="http://www.w3.org/1999/xlink">
 <g id="Слой_x0020_1">
  <metadata id="CorelCorpID_0Corel-Layer"/>
  <path fill="black" d="M3 1828l1013 0 1 -761 151 0c3,24 1,400 1,435 0,75 -3,127 28,188 51,103 177,162 292,130 115,-32 188,-131 188,-250 0,-73 0,-146 0,-219l0 -653c0,-138 4,-175 -79,-275l-41 -40c-37,-37 -73,-72 -110,-109l-164 -164c-10,-10 -49,-46 -54,-57 -13,5 -104,98 -109,107 7,11 158,159 185,186 9,9 20,18 26,28 -29,19 -34,11 -78,49 -21,18 -41,43 -56,74 -32,62 -36,143 -9,210 25,60 69,106 124,133 111,54 194,7 212,6 -1,175 -1,350 0,525 0,56 8,211 -11,251 -32,66 -124,75 -170,18 -25,-31 -23,-61 -23,-106l0 -395c0,-90 -33,-145 -82,-182 -72,-54 -128,-34 -223,-40 -2,-76 -1,-156 0,-232l0 -468c0,-82 -31,-127 -72,-164 -50,-45 -103,-48 -186,-48l-471 0c-86,0 -138,-6 -200,37 -37,25 -81,79 -86,147 -5,72 -1,161 -1,235 0,72 -4,1386 1,1409zm1408 -1319c-52,6 -95,53 -89,113 5,51 55,95 113,88 52,-6 95,-54 88,-113 -6,-52 -54,-95 -112,-88zm-1207 202l609 0 0 -508 -608 0 -1 508z"/>
 </g>
</svg>
