<?xml version="1.0" encoding="UTF-8"?>
<!DOCTYPE svg PUBLIC "-//W3C//DTD SVG 1.1//EN" "http://www.w3.org/Graphics/SVG/1.1/DTD/svg11.dtd">
<!-- Creator: CorelDRAW 2019 (64-Bit) -->
<svg xmlns="http://www.w3.org/2000/svg" xml:space="preserve" width="100%" height="100%" version="1.1" shape-rendering="geometricPrecision" text-rendering="geometricPrecision" image-rendering="optimizeQuality" fill-rule="evenodd" clip-rule="evenodd"
viewBox="0 0 6964 6964"
 xmlns:xlink="http://www.w3.org/1999/xlink">
 <g id="Слой_x0020_1">
  <metadata id="CorelCorpID_0Corel-Layer"/>
  <rect fill="#FCAC00" width="6964" height="6964"/>
  <path fill="black" d="M1159 6023l2816 1 4 -2117 421 -1c9,66 3,1114 3,1210 0,209 -9,353 77,523 143,286 492,450 812,360 321,-89 522,-366 523,-695 1,-203 0,-407 0,-610l0 -1815c0,-383 12,-487 -219,-766l-114 -112c-103,-104 -202,-201 -306,-304l-457 -455c-29,-29 -136,-128 -150,-158 -36,13 -288,272 -304,296 20,30 440,441 514,517 25,26 57,49 72,78 -80,52 -94,31 -217,137 -58,50 -113,119 -157,205 -88,172 -101,397 -24,583 69,167 192,295 346,369 310,149 540,18 591,18 -2,486 -2,973 0,1459 1,155 23,588 -30,697 -89,183 -344,207 -472,50 -70,-85 -63,-169 -63,-295l0 -1099c0,-251 -91,-404 -227,-507 -199,-149 -357,-94 -619,-112 -6,-211 -2,-434 0,-646l1 -1303c-1,-227 -85,-354 -199,-456 -139,-125 -287,-135 -517,-135l-1310 0c-239,-1 -385,-17 -557,102 -103,71 -224,221 -238,408 -15,201 -2,448 -2,654 0,200 -11,3853 4,3919zm3917 -3668c-146,17 -265,147 -248,314 14,143 153,264 315,246 145,-17 263,-149 245,-314 -16,-144 -151,-265 -313,-246zm-3356 561l1693 1 1 -1412 -1691 0 -3 1412z"/>
 </g>
</svg>
